<svg xmlns="http://www.w3.org/2000/svg" xmlns:xlink="http://www.w3.org/1999/xlink" version="1.1" x="0px" y="0px" viewBox="0 0 100 125" style="enable-background:new 0 0 100 100;" xml:space="preserve"><title>61 all</title><path fill="#3b99fc" d="M28.8,82.1h36l0,0c6.1,0,11-4.9,11-11v-22c0-0.6-0.4-1-1-1l0,0c-0.6,0-1,0.4-1,1v22c0,5-4,9-9,9l0,0h-36c-5,0-9-4-9-9v-36  c0-5,4-9,9-9l0,0h22l0,0c0.6,0,1-0.4,1-1s-0.4-1-1-1h-22l0,0c-6.1,0-11,4.9-11,11v36C17.8,77.2,22.7,82.1,28.8,82.1z"/><path fill="#3b99fc" d="M81.2,38.2L81.2,38.2c0.6,0,1-0.4,1-1V18.9c0-0.6-0.4-1-1-1l0,0H62.8l0,0c-0.6,0-1,0.4-1,1s0.4,1,1,1h15.9l-31,30.9  c-0.4,0.4-0.4,1,0,1.4c0.4,0.4,1,0.4,1.4,0l31-30.9v15.9C80.2,37.7,80.6,38.2,81.2,38.2z"/></svg>
